<svg id="Layer_1" data-name="Layer 1" xmlns="http://www.w3.org/2000/svg" viewBox="0 0 1554.19 1471.94"><defs><style>.cls-1{fill:#0071bc;}</style></defs><path class="cls-1" d="M2073.58,1801l-510.49-340.33H696.27V329.06H2250.46V1460.67H2001.59ZM771.41,1385.53h814.43l376.09,250.72-53-250.72h266.43V404.2H771.41Z" transform="translate(-696.27 -329.06)"/><path class="cls-1" d="M1437.62,837.17q0,125.28-60.59,196.18t-170.22,93.14v-85.72q83.26-25.56,112.11-92.32,16.5-35.46,13.19-68.42H1202.69V663.24h234.93Zm306.42,0q0,123.65-58.94,195.35t-171.86,94v-85.72q84.08-26.4,112.92-90.67A147,147,0,0,0,1638.53,880H1509.11V663.24H1744Z" transform="translate(-696.27 -329.06)"/></svg>